<svg width="21" height="20" viewBox="0 0 21 20" fill="none" xmlns="http://www.w3.org/2000/svg">
<g id="flag-rus">
<g id="Group">
<path id="Vector" d="M9.06178 5.85811C13.0892 5.85811 16.5675 3.47826 18.1693 -5.58674e-06H-2.79337e-06C1.55606 3.47826 5.03432 5.85811 9.06178 5.85811Z" transform="translate(1.84082 14.1416)" fill="#FF0000"/>
<path id="Vector_2" d="M9.10755 1.11735e-05C5.08009 1.11735e-05 1.60183 2.37987 1.39669e-06 5.85813H18.1693C16.6133 2.37987 13.135 1.11735e-05 9.10755 1.11735e-05Z" transform="translate(1.79492)" fill="white"/>
<path id="Vector_3" d="M1.39669e-06 4.16475C1.39669e-06 5.67505 0.320368 7.04807 0.915333 8.32953H19.0847C19.6796 7.04807 20 5.62928 20 4.16475C20 2.65446 19.6796 1.28147 19.0847 5.58674e-06H0.915333C0.320368 1.2357 1.39669e-06 2.65446 1.39669e-06 4.16475Z" transform="translate(0.879883 5.85791)" fill="#0000FF"/>
</g>
</g>
</svg>
